<?xml version="1.0" standalone="no"?>
<!DOCTYPE svg PUBLIC "-//W3C//DTD SVG 20010904//EN"
 "http://www.w3.org/TR/2001/REC-SVG-20010904/DTD/svg10.dtd">
<svg version="1.0" xmlns="http://www.w3.org/2000/svg"
 width="91.000000pt" height="91.000000pt" viewBox="0 0 91.000000 91.000000"
 preserveAspectRatio="xMidYMid meet">
<metadata>
Created by potrace 1.14, written by Peter Selinger 2001-2017
</metadata>
<g transform="translate(0.000000,91.000000) scale(0.100000,-0.100000)"
fill="#000000" stroke="none">
<path d="M340 897 c-154 -45 -266 -152 -311 -297 -23 -74 -21 -231 4 -297 43
-115 144 -219 256 -264 112 -44 288 -33 394 26 92 52 183 165 208 260 30 111
17 252 -34 353 -34 69 -122 151 -204 190 -64 30 -84 34 -170 38 -63 3 -114 -1
-143 -9z"/>
</g>
</svg>
